<?xml version="1.0" standalone="no"?>
<!DOCTYPE svg PUBLIC "-//W3C//DTD SVG 20010904//EN"
 "http://www.w3.org/TR/2001/REC-SVG-20010904/DTD/svg10.dtd">
<svg version="1.0" xmlns="http://www.w3.org/2000/svg"
 width="640.000000pt" height="640.000000pt" viewBox="0 0 640.000000 640.000000"
 preserveAspectRatio="xMidYMid meet">

<g transform="translate(0.000000,640.000000) scale(0.100000,-0.100000)"
fill="#000000" stroke="none">
<path d="M2592 6262 c-113 -219 -182 -427 -203 -618 -12 -109 -15 -113 -75
-114 -17 0 -20 -5 -17 -24 4 -18 -1 -27 -17 -36 -25 -13 -41 -50 -29 -66 5 -7
-1 -20 -16 -34 -14 -13 -25 -29 -25 -36 0 -7 -16 -32 -36 -55 -36 -43 -34 -60
5 -40 25 14 41 14 41 1 0 -13 -41 -60 -52 -60 -5 0 -18 -9 -30 -20 -19 -17
-19 -20 -5 -20 24 0 21 -17 -4 -25 -29 -10 -55 -85 -28 -85 6 0 17 -7 25 -15
14 -13 12 -18 -15 -41 -17 -14 -31 -29 -31 -34 0 -15 53 -21 82 -9 46 19 46 0
1 -40 -47 -40 -56 -71 -22 -71 21 0 20 -1 -5 -21 -14 -11 -26 -26 -26 -33 0
-7 -20 -27 -45 -46 -25 -19 -75 -69 -111 -112 -54 -64 -69 -76 -80 -67 -8 7
-17 9 -21 5 -4 -3 2 -13 13 -21 22 -16 12 -20 -16 -5 -14 7 -17 6 -16 -8 1
-21 15 -32 42 -32 15 0 24 -8 28 -24 10 -40 -5 -63 -38 -57 -5 1 -6 -5 -3 -13
3 -8 -19 -50 -52 -98 -31 -46 -74 -111 -95 -145 l-38 -62 28 -51 c32 -58 48
-69 76 -51 11 7 22 10 24 8 3 -3 -18 -51 -47 -108 -94 -187 -109 -219 -109
-233 0 -8 -4 -16 -8 -18 -5 -1 -15 -16 -23 -32 -8 -16 -22 -31 -33 -32 -10 -1
-24 -8 -30 -15 -8 -9 -6 -10 12 -6 12 3 20 1 16 -4 -7 -11 7 -11 24 0 9 5 29
1 54 -11 22 -11 42 -17 45 -14 3 3 -11 13 -31 23 l-37 17 23 18 c19 15 20 18
6 18 -22 0 -23 -3 7 56 14 27 25 52 25 56 0 4 20 51 45 104 25 53 48 107 51
120 3 13 10 24 15 24 5 0 9 8 9 19 0 20 26 31 77 31 30 0 35 5 68 70 19 39 31
70 25 70 -7 0 -11 55 -11 158 -1 86 -1 169 -1 185 -1 28 -13 37 -21 15 -3 -9
-11 -6 -27 9 l-23 22 44 53 c40 49 57 66 128 127 24 21 58 20 73 -2 3 -6 14
-11 25 -12 10 -1 26 -6 36 -10 13 -5 28 0 50 15 85 63 190 129 250 155 67 30
92 62 41 52 -28 -5 -100 19 -123 41 -8 8 -24 11 -38 7 -15 -3 -22 -2 -19 4 4
5 2 12 -4 16 -19 12 -11 55 13 65 19 8 17 9 -18 11 -22 2 -51 2 -64 1 -46 -3
-6 18 47 25 l52 6 -3 53 c-3 33 0 55 7 58 6 2 2 5 -9 6 -18 1 -19 1 -2 11 28
16 21 40 -10 37 -19 -2 -28 2 -28 12 0 9 11 15 32 16 43 2 66 12 58 24 -3 5
-16 10 -28 10 -18 1 -16 3 11 15 17 8 33 19 33 25 1 5 3 15 4 20 1 6 3 13 4
17 0 3 10 -2 20 -11 18 -17 19 -16 26 3 6 21 -7 55 -32 79 -7 7 -13 10 -13 5
0 -5 5 -14 12 -21 15 -15 -19 -29 -40 -16 -17 11 -13 30 6 26 6 -2 12 2 12 8
0 5 -4 10 -10 10 -5 0 -10 7 -10 16 0 12 5 14 18 9 9 -5 33 -10 52 -13 19 -2
41 -9 48 -14 17 -15 15 -2 -4 16 -8 9 -11 16 -5 16 5 0 17 8 26 17 27 26 128
103 136 103 4 0 9 -8 12 -17 3 -15 6 -13 17 9 7 14 21 29 33 32 20 5 47 -14
47 -34 0 -21 24 -4 30 20 7 28 30 39 30 14 0 -14 3 -15 12 -6 15 15 39 16 36
1 -5 -21 50 -18 78 4 26 20 27 20 40 2 13 -18 14 -18 15 6 1 26 13 -34 23
-123 l6 -58 -33 0 c-58 0 -100 -46 -61 -68 25 -14 13 -46 -20 -52 -24 -4 -32
-12 -39 -39 -6 -25 -5 -36 5 -42 10 -7 9 -9 -4 -9 -32 0 -50 -30 -43 -70 4
-23 2 -41 -4 -45 -17 -10 -13 -33 8 -40 19 -6 95 18 228 71 73 29 91 44 52 44
-27 0 -19 24 9 28 12 2 22 10 22 17 0 8 6 18 14 22 7 4 25 32 40 60 21 42 25
61 20 93 -5 32 -4 40 9 40 8 0 17 -5 19 -12 2 -6 14 5 26 26 12 20 18 34 12
31 -11 -7 -19 26 -17 76 l1 36 25 -23 c14 -13 27 -21 30 -19 4 5 -94 157 -140
216 -16 20 -42 72 -58 115 -52 138 -138 340 -173 406 l-33 63 -161 3 -160 2
-72 -138z m-215 -1094 c-3 -8 -6 -5 -6 6 -1 11 2 17 5 13 3 -3 4 -12 1 -19z
m3 -38 c0 -5 -5 -10 -11 -10 -5 0 -7 5 -4 10 3 6 8 10 11 10 2 0 4 -4 4 -10z
m-110 -90 c0 -5 -2 -10 -4 -10 -3 0 -8 5 -11 10 -3 6 -1 10 4 10 6 0 11 -4 11
-10z m80 -69 c0 -13 -28 -22 -35 -11 -3 4 1 11 7 13 20 8 28 8 28 -2z"/>
<path d="M3667 5880 c3 -11 7 -20 9 -20 2 0 4 9 4 20 0 11 -4 20 -9 20 -5 0
-7 -9 -4 -20z"/>
<path d="M4730 5550 c0 -11 2 -20 4 -20 2 0 6 9 9 20 3 11 1 20 -4 20 -5 0 -9
-9 -9 -20z"/>
<path d="M4325 5486 c-99 -20 -196 -63 -288 -128 -28 -20 -28 -20 -105 0 -100
27 -205 42 -285 42 -45 0 -68 5 -77 15 -17 20 -25 12 -28 -27 -2 -25 0 -29 8
-18 9 13 14 8 12 -12 -2 -12 23 -25 61 -31 27 -4 37 -2 37 8 0 7 -9 17 -20 20
-27 9 -25 25 3 25 52 0 226 -23 274 -37 l52 -16 -40 -46 c-47 -53 -57 -75 -51
-108 5 -25 32 -32 32 -8 0 8 -1 16 -2 18 -8 11 32 51 76 76 59 34 66 36 66 20
0 -5 -4 -7 -10 -4 -5 3 -10 1 -10 -4 0 -7 27 -11 69 -11 73 0 154 -24 221 -65
19 -12 52 -27 73 -34 20 -7 37 -15 37 -18 0 -3 -13 -22 -30 -43 -31 -39 -36
-50 -22 -50 8 0 86 100 80 104 -43 28 -234 111 -295 128 -46 13 -81 28 -80 33
6 16 166 66 252 77 93 13 148 5 176 -23 25 -25 26 -24 30 26 4 51 -4 63 -55
86 -47 21 -76 22 -161 5z"/>
<path d="M4722 5475 c0 -16 2 -22 5 -12 2 9 2 23 0 30 -3 6 -5 -1 -5 -18z"/>
<path d="M6190 5430 c-14 -4 -39 -8 -57 -9 -42 -1 -110 -24 -208 -70 -63 -30
-104 -41 -195 -54 -247 -34 -343 -49 -545 -83 -115 -19 -249 -45 -297 -57
l-88 -21 0 -73 c0 -65 2 -73 19 -73 10 0 21 -7 25 -15 4 -11 -2 -15 -24 -15
-28 0 -30 -3 -30 -37 -1 -70 -35 -200 -65 -243 -30 -43 -98 -90 -131 -90 -49
0 -94 62 -97 135 -1 25 -5 45 -8 45 -3 0 -39 -64 -79 -142 -40 -79 -82 -155
-92 -170 -10 -15 -30 -52 -44 -82 -14 -31 -29 -58 -34 -61 -18 -11 -70 -130
-70 -158 0 -33 20 -116 29 -121 3 -3 5 14 4 37 -1 27 0 35 5 21 6 -17 15 -20
65 -20 31 1 57 4 57 8 0 5 7 8 15 8 8 0 12 -6 9 -14 -4 -12 2 -13 31 -6 36 8
36 8 18 -10 -19 -17 -42 -27 -82 -35 -12 -2 -29 -11 -37 -20 -9 -9 -23 -14
-30 -11 -8 3 -13 2 -13 -2 3 -21 -3 -24 -17 -6 -9 11 -14 13 -12 5 9 -32 35
-35 66 -9 17 14 51 30 76 37 80 20 139 87 245 280 28 52 70 142 93 200 23 58
43 108 46 111 2 3 13 -8 25 -24 19 -26 38 -66 103 -214 12 -28 19 -33 42 -30
22 2 28 9 30 34 3 28 6 30 29 26 18 -3 30 1 39 13 7 9 17 14 23 10 17 -10 13
21 -5 36 -14 11 -14 13 0 21 9 5 16 16 16 23 0 8 4 15 9 15 5 0 12 12 16 28 3
15 16 37 27 49 17 19 19 27 11 45 -20 42 -13 67 24 95 33 25 36 26 45 9 8 -15
12 -16 19 -5 6 10 9 6 9 -13 0 -23 6 -29 43 -39 23 -7 46 -16 52 -21 5 -4 16
-8 25 -8 9 0 24 -6 34 -13 22 -16 11 -51 -14 -44 -23 6 -49 -10 -34 -20 6 -5
11 -15 12 -23 0 -8 6 -29 13 -47 11 -26 11 -36 0 -57 -12 -21 -11 -27 2 -40 9
-9 20 -16 26 -16 6 0 11 -11 11 -25 0 -14 -4 -25 -10 -25 -5 0 -10 -7 -10 -15
0 -8 4 -15 8 -15 9 0 6 -69 -2 -78 -3 -2 -24 -5 -46 -5 -38 0 -51 -9 -30 -22
5 -3 15 -15 21 -27 7 -12 7 -18 1 -14 -6 3 -18 3 -28 -1 -16 -6 -16 -7 0 -19
10 -7 19 -24 20 -38 3 -26 -9 -36 -16 -14 -2 6 -10 9 -17 7 -10 -4 -2 -17 23
-44 23 -26 34 -46 30 -57 -7 -23 5 -22 36 2 14 11 30 20 37 20 7 0 10 6 7 13
-3 8 19 43 48 79 29 35 78 104 108 152 30 48 85 129 121 181 36 51 91 135 121
187 31 51 81 135 111 187 31 51 75 136 98 187 39 87 45 94 76 100 18 3 36 10
39 15 3 5 13 9 23 9 10 0 24 7 31 15 11 13 8 20 -16 42 l-29 27 30 6 30 6 -25
8 -25 9 23 8 c30 11 28 37 -3 45 -20 5 -23 9 -15 19 8 9 8 15 1 20 -12 7 49
65 68 65 6 0 11 7 11 15 0 8 -1 15 -2 14 -2 -1 -14 -5 -28 -9z m-1320 -320
c-20 -13 -47 -13 -55 0 -4 6 9 10 32 10 28 0 34 -3 23 -10z m-35 -64 c-18 -13
-20 -13 -23 0 -2 8 -1 22 3 31 5 15 7 15 22 0 16 -16 16 -18 -2 -31z m490
-302 c14 -6 14 -8 -1 -25 -18 -20 -44 -25 -44 -9 0 6 -12 10 -27 11 -25 1 -24
3 12 14 22 8 41 14 42 14 1 1 9 -2 18 -5z m55 -304 c0 -5 -2 -10 -4 -10 -3 0
-8 5 -11 10 -3 6 -1 10 4 10 6 0 11 -4 11 -10z"/>
<path d="M4712 5410 c0 -14 2 -19 5 -12 2 6 2 18 0 25 -3 6 -5 1 -5 -13z"/>
<path d="M4803 5320 c0 -25 2 -35 4 -22 2 12 2 32 0 45 -2 12 -4 2 -4 -23z"/>
<path d="M3518 5305 c-4 -20 -1 -25 14 -25 16 0 17 3 7 23 -16 31 -16 31 -21
2z"/>
<path d="M3535 5260 c-3 -5 1 -10 9 -10 9 0 16 5 16 10 0 6 -4 10 -9 10 -6 0
-13 -4 -16 -10z"/>
<path d="M4065 5230 c3 -5 11 -10 16 -10 6 0 7 5 4 10 -3 6 -11 10 -16 10 -6
0 -7 -4 -4 -10z"/>
<path d="M3185 5148 c-37 -93 -65 -206 -80 -323 -18 -144 -19 -254 -4 -275 9
-12 10 -11 5 5 l-6 20 16 -20 c8 -11 19 -26 23 -34 5 -7 31 -16 58 -18 45 -5
52 -3 71 22 12 15 22 35 22 44 1 14 2 14 11 -2 13 -23 1 -66 -13 -46 -7 10 -8
8 -3 -7 3 -12 -1 -34 -10 -50 -17 -33 -19 -44 -7 -44 5 0 17 19 29 43 11 23
40 78 65 122 45 80 45 80 63 250 26 243 29 219 -33 225 -49 5 -57 10 -113 68
-33 34 -64 62 -68 62 -5 0 -17 -19 -26 -42z"/>
<path d="M4801 5174 c0 -11 3 -14 6 -6 3 7 2 16 -1 19 -3 4 -6 -2 -5 -13z"/>
<path d="M3730 5140 c-14 -4 -19 -8 -12 -9 18 -1 -1 -20 -40 -40 -16 -8 -26
-16 -24 -19 3 -2 18 3 35 11 34 17 106 32 135 28 14 -2 17 2 13 14 -4 9 -3 14
3 10 6 -3 10 -1 10 4 0 13 -82 13 -120 1z"/>
<path d="M3960 5120 c-8 -5 -10 -10 -5 -10 6 0 17 5 25 10 8 5 11 10 5 10 -5
0 -17 -5 -25 -10z"/>
<path d="M3995 5093 c-11 -3 -22 -9 -26 -14 -3 -5 -20 -4 -40 1 -28 8 -36 7
-46 -7 -15 -20 -17 -37 -3 -28 6 3 10 13 10 21 0 8 5 14 10 14 6 0 10 -4 10
-8 0 -4 14 -9 32 -10 41 -3 129 -82 168 -152 5 -8 12 -11 16 -7 4 4 1 15 -8
24 -8 10 -23 37 -33 61 -10 23 -22 42 -26 42 -4 0 -13 16 -19 35 -6 19 -15 34
-18 34 -4 -1 -16 -4 -27 -6z m20 -43 c3 -5 1 -10 -4 -10 -6 0 -11 5 -11 10 0
6 2 10 4 10 3 0 8 -4 11 -10z"/>
<path d="M4563 5090 c-33 -14 -28 -21 12 -18 42 3 73 28 34 27 -13 0 -34 -4
-46 -9z"/>
<path d="M3990 4860 c0 -11 77 -23 116 -17 20 3 15 4 -18 6 -26 0 -58 5 -72
11 -15 5 -26 6 -26 0z"/>
<path d="M2449 4783 c-13 -16 -12 -17 4 -4 9 7 17 15 17 17 0 8 -8 3 -21 -13z"/>
<path d="M2293 4630 c-13 -10 -23 -24 -23 -31 0 -8 12 -2 27 13 32 32 28 45
-4 18z"/>
<path d="M2135 4580 c-3 -5 -1 -10 4 -10 6 0 11 5 11 10 0 6 -2 10 -4 10 -3 0
-8 -4 -11 -10z"/>
<path d="M2086 4555 c-11 -8 -15 -15 -10 -15 6 0 19 7 30 15 10 8 15 14 9 14
-5 0 -19 -6 -29 -14z"/>
<path d="M1785 4540 c27 -12 43 -12 25 0 -8 5 -22 9 -30 9 -10 0 -8 -3 5 -9z"/>
<path d="M1798 4493 c7 -3 16 -2 19 1 4 3 -2 6 -13 5 -11 0 -14 -3 -6 -6z"/>
<path d="M3242 4453 c-20 -54 -23 -68 -14 -58 11 12 34 77 28 82 -2 2 -8 -9
-14 -24z"/>
<path d="M2167 4463 c-4 -3 -7 -11 -7 -17 0 -6 5 -5 12 2 6 6 9 14 7 17 -3 3
-9 2 -12 -2z"/>
<path d="M3200 4429 c0 -5 5 -7 10 -4 6 3 10 8 10 11 0 2 -4 4 -10 4 -5 0 -10
-5 -10 -11z"/>
<path d="M2130 4409 c0 -5 5 -7 10 -4 6 3 10 8 10 11 0 2 -4 4 -10 4 -5 0 -10
-5 -10 -11z"/>
<path d="M3155 4380 c-13 -6 -15 -9 -5 -9 8 0 22 4 30 9 18 12 2 12 -25 0z"/>
<path d="M2081 4303 c-13 -28 -13 -28 8 -9 22 20 27 36 13 36 -5 0 -14 -12
-21 -27z"/>
<path d="M3160 4135 c0 -8 2 -15 4 -15 2 0 6 7 10 15 3 8 1 15 -4 15 -6 0 -10
-7 -10 -15z"/>
<path d="M1452 4025 c-14 -52 -32 -162 -32 -200 0 -29 0 -29 15 -8 15 21 41
211 32 235 -2 7 -9 -5 -15 -27z"/>
<path d="M5229 3995 c17 -20 31 -44 31 -53 0 -10 5 -23 12 -30 26 -26 -18 -11
-71 23 -29 19 -55 35 -57 35 -9 0 -3 -19 9 -32 40 -41 64 -96 26 -62 -17 15
-22 16 -29 4 -13 -20 -34 1 -49 49 -14 48 -38 70 -27 25 4 -16 16 -47 26 -69
21 -45 17 -60 -6 -27 -21 30 -34 28 -34 -6 0 -15 -4 -32 -10 -38 -6 -6 -6 -33
0 -74 5 -36 10 -71 10 -77 0 -7 7 -13 15 -13 10 0 15 10 15 34 0 43 12 51 50
34 24 -10 28 -17 23 -38 -8 -36 -11 -39 -33 -35 -11 2 -22 -1 -25 -6 -4 -5
-11 -7 -16 -4 -10 7 -25 -22 -16 -31 3 -3 21 2 41 10 20 8 36 14 36 13 0 -1
-9 -34 -19 -72 -10 -39 -22 -90 -26 -115 -3 -25 -13 -82 -22 -128 -16 -82 -16
-84 6 -121 24 -44 30 -158 9 -179 -10 -10 -7 -17 12 -35 22 -20 34 -22 93 -20
37 1 67 -1 67 -5 0 -11 -55 -42 -75 -42 -14 0 -16 -6 -11 -31 3 -17 6 -34 6
-38 0 -3 57 -6 127 -6 146 0 207 -7 230 -27 12 -9 15 -9 9 0 -4 6 -20 19 -36
27 -42 22 -30 48 18 39 25 -5 33 -4 28 5 -4 6 -15 11 -25 11 -10 0 -28 12 -42
26 -13 14 -32 30 -42 36 -17 9 -17 7 2 -19 13 -17 19 -36 15 -49 -5 -19 -12
-22 -57 -20 l-52 1 -9 43 c-10 48 -21 54 -30 17 -4 -14 -11 -23 -16 -20 -5 3
-19 1 -30 -5 -16 -9 -20 -8 -20 5 0 9 4 14 10 10 11 -7 36 72 26 82 -4 4 -16
2 -26 -5 -27 -16 -38 -15 -43 6 -4 16 -5 16 -6 0 -1 -13 -9 -18 -30 -18 -63 0
-70 15 -55 121 8 57 35 73 91 54 58 -20 88 0 109 72 18 63 16 205 -4 225 -15
15 -16 68 -2 68 17 0 11 59 -9 79 -12 12 -17 27 -14 44 4 22 1 27 -28 35 -29
7 -34 13 -34 38 -1 16 -4 39 -9 52 -9 28 7 29 34 2 20 -20 24 -18 21 11 -2 17
21 41 35 38 25 -4 34 4 34 30 0 26 4 30 33 33 50 5 48 37 -6 71 -24 15 -54 27
-67 27 -12 0 -35 11 -52 25 -16 14 -39 25 -50 25 -18 0 -17 -3 11 -35z m-4
-155 c3 -6 -1 -7 -9 -4 -18 7 -21 14 -7 14 6 0 13 -4 16 -10z m-5 -120 c0 -5
-4 -10 -10 -10 -5 0 -10 5 -10 10 0 6 5 10 10 10 6 0 10 -4 10 -10z m-9 -345
l-8 -80 -2 75 c-1 75 10 148 16 105 2 -11 -1 -56 -6 -100z"/>
<path d="M5365 4000 c3 -5 11 -10 16 -10 6 0 7 5 4 10 -3 6 -11 10 -16 10 -6
0 -7 -4 -4 -10z"/>
<path d="M4987 3722 c5 -152 3 -212 -12 -306 l-17 -116 -77 -36 c-42 -20 -97
-44 -123 -54 l-47 -19 -32 57 c-55 96 -131 202 -146 202 -32 0 -20 -35 50
-152 86 -141 86 -134 -12 -183 -33 -16 -61 -33 -61 -36 0 -14 50 -32 62 -22 7
5 33 18 58 28 25 9 50 19 56 22 6 2 33 -39 59 -92 26 -52 51 -95 56 -95 4 0
10 12 13 28 5 20 -4 47 -34 104 l-40 78 37 23 c45 28 151 77 166 77 7 0 7 -4
-1 -12 -17 -17 -15 -33 2 -19 12 10 16 8 22 -11 4 -13 20 -50 35 -82 34 -70
35 -76 10 -76 -10 0 -24 -6 -30 -14 -6 -7 -23 -11 -39 -9 l-27 4 25 -15 c14
-8 27 -11 30 -7 10 15 49 31 75 31 l26 0 -30 43 c-46 64 -78 244 -51 287 9 13
10 13 11 0 1 -18 17 17 18 39 1 11 -2 11 -14 1 -16 -13 -16 -15 0 140 2 19 8
36 14 38 6 2 11 10 11 18 0 9 -4 12 -10 9 -6 -4 -10 14 -9 47 0 39 3 48 9 33
17 -41 10 52 -11 142 -11 48 -22 90 -24 91 -2 2 -1 -82 2 -186z m-350 -464
c-3 -7 -5 -2 -5 12 0 14 2 19 5 13 2 -7 2 -19 0 -25z m123 -188 c0 -5 -4 -10
-10 -10 -5 0 -10 5 -10 10 0 6 5 10 10 10 6 0 10 -4 10 -10z"/>
<path d="M1844 3814 c0 -33 0 -34 13 -12 16 29 16 35 0 41 -9 3 -13 -5 -13
-29z"/>
<path d="M1537 3823 c-4 -3 -7 -16 -6 -27 0 -19 1 -19 10 3 10 24 8 36 -4 24z"/>
<path d="M1826 3755 c-9 -26 -7 -32 5 -12 6 10 9 21 6 23 -2 3 -7 -2 -11 -11z"/>
<path d="M5427 3754 c36 -15 48 -30 33 -39 -5 -3 -10 2 -11 12 0 11 -6 6 -15
-15 -11 -26 -19 -32 -32 -26 -9 4 -32 12 -50 18 -22 8 -30 16 -27 26 4 8 -5 4
-19 -9 -32 -31 -32 -32 3 -25 19 4 45 -2 80 -18 46 -23 52 -24 65 -9 22 24 30
69 16 86 -7 8 -27 15 -44 14 l-31 -1 32 -14z"/>
<path d="M1507 3736 c-5 -15 -6 -31 -3 -34 8 -8 18 25 14 45 -3 13 -6 10 -11
-11z"/>
<path d="M1200 3741 c0 -6 19 -25 43 -42 37 -27 48 -30 95 -27 l54 5 -7 -61
c-4 -34 -9 -73 -10 -88 -2 -16 4 -42 12 -60 l16 -31 19 23 c11 13 17 32 15 42
-3 9 -2 16 2 15 11 -3 81 36 81 46 0 5 -9 6 -19 2 -21 -6 -20 -11 -6 80 l6 40
-16 -35 c-14 -30 -21 -56 -24 -92 -1 -5 -5 -8 -11 -8 -5 0 -11 24 -12 53 -1
52 -2 52 -5 7 -7 -107 -14 -132 -29 -119 -12 9 -12 15 -2 27 10 12 10 16 0 19
-9 4 -10 22 -6 71 5 52 11 71 27 84 12 9 18 20 14 24 -4 4 -16 -1 -26 -10 -23
-21 -108 -36 -97 -18 5 8 -3 12 -23 12 -17 0 -42 11 -60 26 -17 14 -31 21 -31
15z"/>
<path d="M2580 3685 c0 -8 5 -17 10 -20 21 -13 8 -23 -42 -29 -76 -10 -138
-33 -176 -64 -30 -25 -34 -34 -35 -79 -2 -52 -2 -52 33 -58 19 -3 43 -8 52
-11 12 -4 15 0 11 14 -7 27 39 76 84 90 54 16 172 32 189 25 21 -8 17 -23 -6
-23 -50 0 -88 -176 -59 -275 16 -53 25 -60 60 -46 24 9 24 9 -8 16 -29 7 -32
11 -38 55 -13 93 27 224 75 250 10 6 47 10 81 10 47 0 65 4 75 18 14 19 12 20
28 -32 3 -8 21 -18 40 -21 19 -4 37 -14 41 -22 11 -31 -31 -209 -57 -240 -6
-7 -7 -13 -3 -13 32 0 95 156 95 234 0 15 4 25 10 21 6 -3 10 -4 10 0 0 3 -12
10 -26 15 -14 6 -22 15 -19 20 4 6 -4 20 -17 31 l-23 20 30 -6 30 -6 -25 17
c-14 9 -30 23 -36 31 -13 15 -145 43 -205 43 -22 0 -71 11 -109 24 -54 19 -70
22 -70 11z m165 -95 c-3 -5 -17 -10 -31 -10 -13 0 -24 5 -24 10 0 6 14 10 31
10 17 0 28 -4 24 -10z"/>
<path d="M1793 3644 c-6 -16 -21 -60 -33 -99 -11 -38 -26 -78 -31 -88 -12 -23
-3 -53 18 -61 13 -5 14 -4 4 8 -14 17 -6 72 13 96 16 18 50 144 44 161 -2 7
-9 -1 -15 -17z"/>
<path d="M960 3482 c0 -5 14 -7 30 -4 17 2 30 6 30 8 0 2 -13 4 -30 4 -16 0
-30 -4 -30 -8z"/>
<path d="M5070 3445 c-7 -9 -11 -18 -8 -20 3 -3 11 1 18 10 7 9 11 18 8 20 -3
3 -11 -1 -18 -10z"/>
<path d="M1761 3424 c0 -11 3 -14 6 -6 3 7 2 16 -1 19 -3 4 -6 -2 -5 -13z"/>
<path d="M1835 3393 c-18 -14 -18 -15 -2 -9 10 3 23 6 28 6 5 0 9 5 9 10 0 14
-12 12 -35 -7z"/>
<path d="M1898 3403 c7 -3 16 -2 19 1 4 3 -2 6 -13 5 -11 0 -14 -3 -6 -6z"/>
<path d="M5521 3334 c0 -11 3 -14 6 -6 3 7 2 16 -1 19 -3 4 -6 -2 -5 -13z"/>
<path d="M2366 3315 c4 -16 11 -34 16 -40 7 -7 8 -1 3 15 -12 40 -26 59 -19
25z"/>
<path d="M3805 3330 c-3 -5 3 -10 15 -10 12 0 18 -4 15 -10 -3 -5 -15 -10 -25
-10 -33 0 -32 -19 2 -28 l33 -10 -42 1 c-31 1 -47 -4 -58 -18 -58 -75 -93
-173 -80 -222 7 -25 9 -22 17 27 5 30 24 87 42 127 l34 71 39 -9 c21 -5 55 -9
77 -9 33 0 37 2 26 15 -14 17 -7 31 10 20 6 -4 9 -18 6 -30 -5 -19 1 -28 27
-44 65 -40 72 -55 58 -114 -8 -29 -24 -79 -37 -111 -22 -55 -22 -58 -4 -41 29
27 60 118 60 180 0 30 4 55 10 55 14 0 108 -119 129 -165 36 -75 36 -83 -1
-117 l-33 -31 35 8 c19 4 47 8 61 8 26 0 27 2 34 80 6 68 4 82 -9 89 -9 5 -16
17 -16 28 0 10 -11 32 -25 48 l-24 29 27 13 27 13 -30 7 c-39 9 -95 34 -120
53 -20 16 -19 16 5 11 14 -2 -6 6 -45 19 -38 13 -101 38 -139 55 -73 34 -91
38 -101 22z m226 -130 c13 -10 19 -19 13 -20 -7 0 -22 9 -35 20 -13 10 -19 19
-13 20 7 0 22 -9 35 -20z"/>
<path d="M1998 3273 c7 -3 16 -2 19 1 4 3 -2 6 -13 5 -11 0 -14 -3 -6 -6z"/>
<path d="M1910 3257 c-28 -9 -31 -11 -14 -14 12 -2 37 3 55 11 41 17 12 20
-41 3z"/>
<path d="M1425 3250 c-3 -5 -1 -10 4 -10 6 0 11 5 11 10 0 6 -2 10 -4 10 -3 0
-8 -4 -11 -10z"/>
<path d="M1555 3229 c-4 -12 -19 -32 -34 -45 -14 -13 -20 -24 -13 -24 6 0 12
-7 12 -15 0 -11 13 -15 54 -15 29 0 66 -2 82 -4 16 -2 21 -1 11 1 -19 5 -72
72 -82 104 -8 25 -22 24 -30 -2z m24 -23 c10 -12 7 -18 -18 -30 -42 -22 -46
-20 -19 13 28 36 23 34 37 17z m28 -52 c2 -7 -8 -9 -28 -6 -22 3 -27 7 -18 13
17 11 41 7 46 -7z"/>
<path d="M105 3233 c-25 -6 -44 -23 -26 -23 7 0 9 -5 6 -11 -9 -13 3 -79 14
-79 5 0 14 14 22 31 7 18 23 45 37 60 l24 29 -29 -1 c-15 -1 -37 -3 -48 -6z"/>
<path d="M1837 3233 c-14 -13 -7 -43 11 -43 12 0 17 8 17 25 0 24 -14 33 -28
18z"/>
<path d="M4141 3226 c7 -7 129 -10 136 -3 3 4 -27 7 -67 7 -40 0 -71 -2 -69
-4z"/>
<path d="M2858 3213 c7 -3 16 -2 19 1 4 3 -2 6 -13 5 -11 0 -14 -3 -6 -6z"/>
<path d="M1430 3181 c0 -11 4 -22 9 -25 4 -3 6 6 3 19 -5 30 -12 33 -12 6z"/>
<path d="M1995 3161 c31 -13 93 -24 75 -13 -8 5 -33 12 -55 16 -26 4 -33 3
-20 -3z"/>
<path d="M4911 3104 c-6 -15 -9 -29 -7 -32 3 -2 10 8 16 23 14 36 7 43 -9 9z"/>
<path d="M4252 3060 c0 -14 2 -19 5 -12 2 6 2 18 0 25 -3 6 -5 1 -5 -13z"/>
<path d="M5500 3044 c0 -21 4 -33 10 -29 6 3 10 19 10 36 0 16 -4 29 -10 29
-5 0 -10 -16 -10 -36z"/>
<path d="M5242 3040 c0 -19 2 -27 5 -17 2 9 2 25 0 35 -3 9 -5 1 -5 -18z"/>
<path d="M4367 2996 c-42 -36 -51 -72 -14 -61 20 6 97 54 97 60 0 2 -10 9 -23
18 -21 14 -25 12 -60 -17z"/>
<path d="M1843 3014 c7 -8 97 -7 105 1 3 3 -21 5 -53 5 -32 0 -56 -3 -52 -6z"/>
<path d="M2098 2993 c12 -2 30 -2 40 0 9 3 -1 5 -23 4 -22 0 -30 -2 -17 -4z"/>
<path d="M2180 2989 c-18 -5 -10 -7 28 -8 28 -1 52 1 52 3 0 8 -56 12 -80 5z"/>
<path d="M1880 2964 c0 -32 39 -168 47 -161 5 6 -37 187 -43 187 -2 0 -4 -12
-4 -26z"/>
<path d="M3695 2960 c3 -5 13 -10 21 -10 8 0 12 5 9 10 -3 6 -13 10 -21 10 -8
0 -12 -4 -9 -10z"/>
<path d="M5510 2969 c0 -3 5 -20 11 -37 10 -30 11 -31 35 -16 13 9 24 21 24
26 0 6 -7 4 -16 -3 -14 -11 -19 -9 -35 11 -10 14 -19 22 -19 19z"/>
<path d="M2280 2892 c0 -5 12 -14 27 -21 28 -13 28 -13 9 8 -20 22 -36 27 -36
13z"/>
<path d="M5421 2888 c-1 -11 6 -16 19 -15 11 1 20 5 20 10 0 5 -6 7 -14 4 -8
-3 -17 -1 -20 6 -2 7 -5 5 -5 -5z"/>
<path d="M3893 2876 c-30 -14 -29 -26 2 -26 14 0 25 2 25 4 0 2 3 11 6 20 7
18 -1 19 -33 2z"/>
<path d="M2340 2856 c0 -2 7 -9 15 -16 9 -7 15 -8 15 -2 0 5 -7 12 -15 16 -8
3 -15 4 -15 2z"/>
<path d="M1470 2836 c0 -2 7 -7 16 -10 8 -3 12 -2 9 4 -6 10 -25 14 -25 6z"/>
<path d="M1840 2829 c0 -37 106 -126 126 -106 10 10 -6 27 -26 27 -10 0 -37
21 -59 46 -23 26 -41 40 -41 33z"/>
<path d="M2410 2819 c0 -15 44 -89 53 -89 4 0 -4 23 -18 50 -25 49 -35 60 -35
39z"/>
<path d="M2030 2792 c0 -25 30 -125 41 -136 5 -6 9 -14 9 -18 0 -16 -20 -7
-56 27 -35 33 -59 41 -37 13 5 -7 11 -31 12 -53 1 -22 6 -65 11 -95 8 -49 9
-45 5 33 -2 53 0 87 6 87 10 0 14 -8 23 -52 4 -16 11 -28 16 -28 5 0 7 7 3 17
-5 14 -1 15 28 10 21 -4 29 -4 20 2 -10 7 -11 13 -2 30 9 17 9 21 -2 21 -14 0
-40 58 -52 117 -7 37 -25 54 -25 25z"/>
<path d="M4218 2793 c7 -3 16 -2 19 1 4 3 -2 6 -13 5 -11 0 -14 -3 -6 -6z"/>
<path d="M1804 2772 c-6 -4 -19 -21 -29 -39 -10 -17 -32 -39 -49 -48 -30 -16
-33 -16 -69 5 -29 17 -37 28 -34 42 6 19 -14 21 -20 2 -4 -13 31 -54 46 -54 6
0 11 -4 11 -10 0 -5 -26 -10 -57 -11 -57 -1 -57 -1 -18 -9 102 -20 135 -20
152 0 22 25 33 17 33 -25 0 -45 -95 -233 -168 -332 -61 -82 -109 -128 -152
-146 -14 -6 -32 -16 -40 -23 -38 -30 -141 -74 -200 -84 -69 -12 -181 -4 -333
24 -121 22 -211 31 -374 35 -30 1 -43 5 -43 15 0 21 33 28 98 21 l57 -7 -35
23 c-19 12 -55 27 -80 34 -54 15 -291 104 -305 115 -8 7 -182 70 -192 70 -1 0
-3 -4 -3 -8 0 -4 26 -20 58 -34 31 -14 73 -33 92 -42 34 -16 34 -16 5 -10 -16
3 -54 10 -83 14 -29 5 -57 12 -62 15 -6 3 -10 -1 -10 -9 0 -10 13 -17 38 -21
168 -28 343 -74 402 -105 l21 -11 -21 -26 c-40 -51 -7 -64 296 -113 39 -6 107
-11 150 -10 138 2 146 1 74 -19 -36 -10 -74 -22 -85 -28 -11 -6 -45 -14 -75
-18 -30 -4 -59 -11 -65 -15 -5 -4 -101 -17 -212 -30 -243 -27 -273 -22 -461
67 -29 14 -56 22 -60 18 -9 -9 16 -22 138 -74 l105 -45 120 2 c66 1 161 9 210
17 50 8 112 17 139 20 27 3 52 7 56 10 4 3 85 21 178 40 94 19 183 40 197 45
32 12 78 13 71 2 -11 -18 -350 -148 -686 -264 -139 -48 -170 -61 -170 -71 0
-9 43 0 85 18 54 23 243 85 259 85 9 0 16 4 16 8 0 4 21 14 48 21 26 8 64 23
86 33 21 11 47 17 57 15 20 -5 75 13 171 57 71 33 86 33 53 1 -14 -14 -25 -30
-25 -36 0 -10 40 23 112 94 26 26 53 47 59 47 5 0 8 -4 5 -8 -3 -5 -10 -80
-17 -168 -6 -90 -17 -168 -24 -179 -7 -11 -29 -63 -50 -115 -21 -52 -41 -97
-45 -100 -3 -3 -25 -43 -48 -90 -23 -47 -54 -100 -69 -118 l-28 -33 -52 26
c-29 14 -55 25 -58 25 -2 0 -57 31 -121 70 -65 38 -120 70 -124 70 -3 0 -15 8
-26 18 -11 10 -32 27 -47 36 -15 10 -24 23 -20 29 3 6 1 7 -5 3 -17 -10 -210
149 -208 171 1 13 -5 17 -23 15 -38 -4 -209 97 -289 172 -25 23 -32 26 -32 13
0 -21 109 -102 213 -159 43 -24 101 -61 129 -83 251 -198 388 -288 606 -395
45 -22 82 -46 82 -53 0 -25 -57 -103 -114 -154 -32 -29 -55 -53 -51 -53 3 0
28 21 55 46 28 26 50 41 50 35 0 -13 -19 -53 -29 -61 -4 -3 -33 -45 -66 -93
-111 -164 -140 -204 -203 -280 -45 -53 -68 -74 -80 -70 -10 4 -13 2 -8 -5 4
-7 1 -12 -7 -12 -7 0 -14 7 -14 15 0 8 5 15 10 15 6 0 7 3 4 7 -4 3 -3 11 2
17 5 6 10 27 11 46 4 73 1 87 -22 95 -14 4 -18 8 -10 12 6 2 12 9 12 15 0 19
43 52 132 102 48 26 89 55 92 62 6 17 -8 10 -80 -36 -24 -15 -65 -33 -91 -40
-27 -7 -53 -17 -59 -22 -21 -15 -99 -20 -143 -8 -55 15 -91 50 -91 90 0 29
-21 42 -34 21 -13 -20 27 -102 66 -135 l40 -34 -47 -7 c-144 -22 -347 96 -282
164 10 11 9 13 -3 9 -42 -13 -49 -99 -14 -173 26 -57 122 -146 201 -188 85
-44 157 -60 251 -55 39 1 72 0 72 -3 0 -19 -220 -272 -358 -411 l-66 -68 41 0
c42 0 43 1 199 175 86 96 185 211 221 255 35 44 85 96 110 115 49 37 76 47 51
18 -14 -17 -102 -171 -127 -223 -7 -14 15 4 47 39 33 34 64 73 70 85 5 11 45
95 90 186 116 240 174 366 163 355 -13 -14 -71 -130 -71 -144 0 -14 -17 -15
-22 0 -2 5 -28 -27 -58 -73 -96 -145 -224 -308 -234 -298 -2 3 13 30 34 60
187 262 239 341 306 458 35 63 64 120 64 128 0 8 5 14 11 14 6 0 9 -9 6 -20
-3 -11 -1 -23 4 -26 5 -3 9 2 9 11 0 29 30 29 56 -1 32 -37 50 -70 59 -111 3
-18 11 -36 16 -39 12 -7 4 44 -18 121 -13 46 -26 94 -53 204 -9 38 -8 49 11
87 24 52 34 56 25 13 -7 -37 15 -36 24 2 6 22 7 21 15 -11 4 -19 11 -82 15
-140 l7 -105 2 105 c2 111 24 331 36 349 3 6 11 62 16 124 18 213 24 255 32
222 19 -81 25 -126 22 -188 -1 -37 2 -70 7 -73 6 -4 8 67 5 190 -4 176 -3 196
12 196 13 0 16 -16 19 -103 2 -93 36 -296 62 -372 8 -25 9 -22 5 25 -2 30 -9
93 -15 140 -7 51 -9 119 -4 170 10 116 10 120 12 163 1 26 7 37 18 37 8 0 13
-4 9 -9 -3 -5 -1 -12 4 -16 5 -3 21 -30 36 -60 14 -30 30 -55 35 -55 13 0 13
6 -6 42 -8 16 -21 49 -28 72 l-13 43 45 44 c63 63 120 135 147 190 15 29 33
49 47 53 13 3 83 6 156 6 72 0 132 4 132 9 0 12 -101 19 -202 14 -49 -3 -88
-3 -88 0 0 3 14 36 31 73 24 54 29 80 27 124 -1 40 3 63 16 82 19 28 19 53 0
40z m-687 -1476 c-3 -8 3 -45 14 -83 24 -86 24 -98 -1 -73 -11 11 -31 22 -45
26 -14 3 -25 10 -25 16 0 5 -4 6 -10 3 -20 -12 -9 17 25 70 33 52 54 72 42 41z
m-304 -642 c-21 -32 -45 -60 -53 -62 -12 -4 29 60 69 110 32 38 21 6 -16 -48z
m-238 -4 c3 -5 1 -10 -4 -10 -6 0 -11 5 -11 10 0 6 2 10 4 10 3 0 8 -4 11 -10z"/>
<path d="M2106 2752 c24 -42 82 -98 112 -107 l23 -7 -27 41 c-14 23 -29 41
-31 41 -3 0 2 -11 11 -25 29 -45 -1 -26 -54 33 -38 41 -47 48 -34 24z"/>
<path d="M4939 2729 c-20 -16 -20 -18 -4 -11 11 5 27 11 35 14 9 3 10 7 3 11
-6 4 -22 -2 -34 -14z"/>
<path d="M5175 2720 c-3 -5 -1 -10 4 -10 6 0 11 5 11 10 0 6 -2 10 -4 10 -3 0
-8 -4 -11 -10z"/>
<path d="M2485 2687 c7 -26 6 -26 -26 -17 -42 12 -46 12 -33 1 14 -13 57 -20
76 -13 15 6 15 9 -3 31 l-20 25 6 -27z"/>
<path d="M5121 2698 c0 -7 4 -22 9 -33 7 -17 9 -15 9 13 1 17 -3 32 -9 32 -5
0 -10 -6 -9 -12z"/>
<path d="M4875 2690 c-3 -6 1 -7 9 -4 18 7 21 14 7 14 -6 0 -13 -4 -16 -10z"/>
<path d="M4278 2673 c6 -2 18 -2 25 0 6 3 1 5 -13 5 -14 0 -19 -2 -12 -5z"/>
<path d="M2525 2630 c3 -5 11 -10 16 -10 6 0 7 5 4 10 -3 6 -11 10 -16 10 -6
0 -7 -4 -4 -10z"/>
<path d="M2295 2584 c11 -9 35 -22 53 -30 24 -11 32 -21 33 -42 2 -27 2 -27 6
-2 3 14 10 28 16 32 6 3 -7 11 -29 17 -22 6 -48 17 -59 25 -27 20 -45 20 -20
0z"/>
<path d="M2575 2570 c-3 -5 -1 -10 4 -10 6 0 11 5 11 10 0 6 -2 10 -4 10 -3 0
-8 -4 -11 -10z"/>
<path d="M2619 2527 c26 -28 31 -32 31 -19 0 4 -13 16 -28 26 l-27 19 24 -26z"/>
<path d="M4626 2504 c-4 -10 -1 -14 6 -12 15 5 23 28 10 28 -5 0 -13 -7 -16
-16z"/>
<path d="M4725 2500 c3 -5 8 -10 11 -10 2 0 4 5 4 10 0 6 -5 10 -11 10 -5 0
-7 -4 -4 -10z"/>
<path d="M2669 2486 c8 -10 48 -41 89 -69 l74 -52 -5 -55 c-7 -70 -10 -85 -24
-101 -22 -29 -53 -113 -47 -131 4 -13 15 -18 40 -18 42 0 44 -13 5 -29 -16 -7
-64 -37 -107 -67 l-78 -54 -29 27 -30 28 18 -28 c10 -15 15 -30 13 -33 -3 -3
-31 7 -62 23 -43 21 -56 32 -56 49 0 20 3 21 34 14 18 -4 38 -10 43 -13 6 -4
19 0 29 8 18 14 17 14 -9 15 -19 0 -43 14 -74 43 -65 61 -53 74 30 33 37 -19
69 -31 72 -26 3 4 -17 17 -43 28 -26 11 -64 32 -85 46 -21 14 -41 26 -44 26
-3 0 -3 -16 0 -35 3 -19 3 -35 -1 -35 -3 0 -25 19 -49 42 -23 23 -45 39 -48
36 -7 -7 75 -92 105 -108 12 -6 19 -14 16 -17 -3 -3 -12 0 -21 7 -23 19 -18
-4 5 -25 37 -33 23 -47 -20 -20 -22 14 -44 25 -50 25 -23 0 -6 -17 53 -55 74
-48 204 -94 267 -94 40 -1 51 4 95 45 28 25 76 66 108 91 51 40 62 44 95 38
20 -3 57 -8 81 -10 66 -6 124 -16 142 -26 8 -4 32 -47 53 -96 20 -48 52 -119
70 -158 18 -38 43 -98 56 -132 l22 -63 69 0 69 0 -46 78 c-25 42 -60 104 -76
137 -17 33 -50 91 -74 128 -49 75 -55 93 -25 77 11 -5 31 -10 45 -10 23 0 26
4 28 38 0 20 0 44 -1 52 -1 8 -2 26 -2 40 1 20 -6 28 -31 37 -96 34 -278 67
-435 79 l-92 6 2 76 2 75 -90 65 c-49 36 -83 57 -76 48z m411 -386 c0 -11 -4
-20 -9 -20 -5 0 -7 9 -4 20 3 11 7 20 9 20 2 0 4 -9 4 -20z m-615 -40 c3 -5 1
-10 -4 -10 -6 0 -11 5 -11 10 0 6 2 10 4 10 3 0 8 -4 11 -10z m20 -48 c-3 -3
-11 0 -18 7 -9 10 -8 11 6 5 10 -3 15 -9 12 -12z"/>
<path d="M5760 2493 c0 -4 17 -19 38 -33 20 -14 40 -29 43 -34 4 -4 11 -7 17
-5 5 2 -15 21 -44 42 -30 21 -54 34 -54 30z"/>
<path d="M4711 2423 c-6 -21 -15 -81 -18 -133 -4 -75 -2 -103 11 -134 9 -21
16 -40 16 -42 0 -12 -27 -1 -48 19 l-25 22 6 -25 6 -25 -20 25 c-44 55 -51 80
-47 158 l4 75 -17 -37 c-20 -47 -33 -58 -27 -24 7 39 -9 25 -17 -15 -4 -17
-16 -47 -26 -66 -11 -18 -18 -36 -15 -38 2 -3 10 5 16 18 12 22 12 22 32 -10
11 -17 24 -31 29 -31 12 0 11 17 -1 25 -5 3 -10 19 -10 35 0 16 5 32 10 35 6
4 10 -6 10 -22 0 -38 45 -128 77 -153 30 -24 58 -27 50 -6 -4 10 -1 13 9 9 7
-3 21 -2 30 1 14 5 13 11 -8 43 -19 32 -23 51 -23 126 0 67 4 90 15 97 13 9
13 11 0 19 -12 8 -12 15 -2 44 14 40 15 47 4 47 -5 0 -14 -17 -21 -37z"/>
<path d="M6050 2380 c20 -13 33 -13 25 0 -3 6 -14 10 -23 10 -15 0 -15 -2 -2
-10z"/>
<path d="M4770 2294 c13 -21 30 -47 37 -56 12 -13 12 -21 2 -40 -11 -21 -11
-22 4 -9 10 7 17 19 17 27 0 7 9 18 20 24 11 6 20 15 20 21 0 6 -5 7 -10 4 -6
-4 -27 7 -48 23 -61 47 -68 48 -42 6z m68 -42 c2 -7 -2 -10 -12 -6 -9 3 -16
11 -16 16 0 13 23 5 28 -10z"/>
<path d="M2401 2278 c-1 -50 6 -78 20 -78 4 0 6 6 3 14 -3 8 -9 36 -14 62 l-8
49 -1 -47z"/>
<path d="M3770 2310 c-20 -12 -129 -39 -231 -55 l-84 -14 80 5 c44 3 106 12
137 20 63 16 151 52 128 53 -8 0 -22 -3 -30 -9z"/>
<path d="M2067 2238 c3 -18 14 -58 24 -88 9 -30 24 -87 33 -125 17 -78 40
-140 56 -150 5 -3 10 -14 10 -24 0 -29 77 -139 112 -161 49 -29 53 -25 19 19
-17 21 -44 67 -61 102 -34 72 -40 107 -12 73 64 -80 95 -111 154 -155 38 -29
82 -53 102 -56 45 -7 48 11 4 26 -42 15 -31 23 13 11 34 -11 109 -4 109 9 0 4
-16 13 -35 20 -45 16 -44 27 3 36 20 4 52 16 70 27 18 11 39 17 47 14 9 -3 12
0 8 10 -6 17 -28 12 -83 -17 -47 -26 -78 -24 -90 4 -12 29 -31 51 -55 65 l-20
11 20 1 c14 1 10 5 -15 17 -19 9 -38 15 -42 15 -5 -1 -8 3 -8 9 0 6 -7 8 -16
5 -12 -4 -15 -2 -10 9 3 8 2 14 -2 13 -4 -1 -17 2 -30 6 -15 5 -31 2 -47 -8
-35 -23 -50 -20 -84 17 -17 17 -31 26 -31 19 0 -8 -11 0 -25 16 -28 33 -80
143 -101 215 -17 54 -26 62 -17 15z m263 -312 c0 -11 -19 -15 -25 -6 -3 5 1
10 9 10 9 0 16 -2 16 -4z"/>
<path d="M4038 2242 c-21 -14 -38 -32 -38 -41 1 -14 2 -14 14 2 7 9 17 17 22
17 5 0 17 12 27 25 10 14 17 25 15 24 -2 -1 -20 -13 -40 -27z"/>
<path d="M3395 2219 c-4 -11 -5 -23 -2 -26 3 -2 8 5 12 16 3 11 16 22 28 24
19 4 18 4 -5 6 -19 1 -29 -5 -33 -20z"/>
<path d="M2470 2205 c0 -4 8 -14 18 -22 20 -16 61 -39 47 -27 -52 47 -65 56
-65 49z"/>
<path d="M4460 2160 c-9 -6 -10 -10 -3 -10 6 0 15 5 18 10 8 12 4 12 -15 0z"/>
<path d="M4775 2140 c-3 -5 -1 -10 4 -10 6 0 11 5 11 10 0 6 -2 10 -4 10 -3 0
-8 -4 -11 -10z"/>
<path d="M2575 2130 c-4 -6 7 -10 25 -10 18 0 29 4 25 10 -3 6 -15 10 -25 10
-10 0 -22 -4 -25 -10z"/>
<path d="M1460 2076 c0 -8 5 -18 10 -21 6 -3 10 1 10 9 0 8 -4 18 -10 21 -5 3
-10 -1 -10 -9z"/>
<path d="M2695 2051 c-26 -4 -36 -9 -27 -14 14 -10 69 0 77 14 4 5 3 8 -2 8
-4 -1 -26 -5 -48 -8z"/>
<path d="M4315 2024 c-27 -20 -52 -41 -54 -47 -2 -5 10 0 28 12 38 27 40 17 4
-21 -27 -28 -26 -51 1 -29 8 7 21 9 28 5 11 -6 11 -5 0 8 -10 13 -7 22 18 53
25 32 38 57 28 54 -2 0 -25 -16 -53 -35z"/>
<path d="M2977 2003 c-23 -26 -37 -69 -37 -113 0 -31 5 -43 24 -55 34 -23 85
-16 107 15 23 30 37 120 20 120 -6 0 -11 -10 -11 -23 0 -12 -11 -39 -25 -60
-21 -30 -32 -37 -60 -37 -29 0 -34 4 -40 30 -8 35 0 64 27 103 23 32 19 46 -5
20z"/>
<path d="M3565 2010 c3 -5 11 -10 16 -10 6 0 7 5 4 10 -3 6 -11 10 -16 10 -6
0 -7 -4 -4 -10z"/>
<path d="M3698 1983 c7 -3 16 -2 19 1 4 3 -2 6 -13 5 -11 0 -14 -3 -6 -6z"/>
<path d="M1550 1965 c0 -4 20 -64 45 -134 24 -69 47 -145 51 -169 4 -28 10
-39 15 -31 10 17 11 16 44 -51 37 -74 81 -138 125 -181 l36 -35 -4 27 c-2 17
-9 26 -16 23 -38 -14 -185 278 -262 520 -8 26 -34 49 -34 31z"/>
<path d="M3422 1956 c15 -9 59 -23 98 -31 84 -18 80 -17 80 -7 0 5 -38 16 -84
25 -46 9 -92 19 -103 23 -10 3 -6 -2 9 -10z"/>
<path d="M4235 1920 c-3 -5 -1 -10 4 -10 6 0 11 5 11 10 0 6 -2 10 -4 10 -3 0
-8 -4 -11 -10z"/>
<path d="M4350 1920 c8 -5 20 -10 25 -10 6 0 3 5 -5 10 -8 5 -19 10 -25 10 -5
0 -3 -5 5 -10z"/>
<path d="M2760 1884 c0 -9 -8 -23 -17 -30 -17 -13 -17 -14 0 -8 26 9 48 54 27
54 -5 0 -10 -7 -10 -16z"/>
<path d="M3668 1883 c7 -3 16 -2 19 1 4 3 -2 6 -13 5 -11 0 -14 -3 -6 -6z"/>
<path d="M4754 1828 c2 -76 1 -77 -89 -79 -53 -2 -45 -4 47 -14 l56 -6 28 -79
c15 -43 38 -91 51 -107 l23 -28 -21 55 c-12 30 -30 75 -39 100 -16 41 -42 136
-54 200 -2 14 -4 -5 -2 -42z"/>
<path d="M2570 1820 c0 -6 17 -10 37 -10 43 0 41 5 -4 13 -19 4 -33 2 -33 -3z"/>
<path d="M5865 1812 c10 -10 72 -27 382 -101 40 -9 78 -14 85 -9 9 5 6 8 -9 8
-13 0 -23 4 -23 9 0 9 -30 15 -120 25 -48 6 -256 55 -309 73 -11 4 -13 3 -6
-5z"/>
<path d="M2760 1781 c0 -13 48 -46 56 -38 3 2 -9 15 -25 27 -17 12 -31 17 -31
11z"/>
<path d="M4532 1738 c-24 -5 -41 -12 -38 -15 8 -9 116 8 116 18 0 11 -20 10
-78 -3z"/>
<path d="M6363 1693 c9 -2 23 -2 30 0 6 3 -1 5 -18 5 -16 0 -22 -2 -12 -5z"/>
<path d="M4240 1680 c-8 -5 -10 -10 -5 -10 6 0 17 5 25 10 8 5 11 10 5 10 -5
0 -17 -5 -25 -10z"/>
<path d="M3786 1616 c-23 -42 -35 -54 -66 -64 -22 -6 -46 -9 -55 -5 -10 3 -20
0 -25 -7 -5 -8 -41 -13 -111 -14 l-104 -1 54 -53 c30 -28 72 -60 93 -70 53
-24 47 -35 -14 -27 -41 5 -50 4 -42 -5 16 -16 168 -28 245 -19 35 4 86 17 113
28 52 23 98 55 90 63 -3 3 3 8 12 12 15 6 16 -3 9 -89 -7 -95 -7 -96 20 -123
l28 -27 -9 25 c-10 31 -7 147 6 206 6 24 24 72 40 106 l30 63 -47 -52 c-49
-52 -105 -94 -180 -132 -47 -24 -57 -26 -48 -11 4 7 -3 9 -22 5 -15 -3 -22 -2
-15 1 16 7 -3 34 -24 34 -8 0 -23 9 -33 19 -20 20 -19 20 15 31 46 15 44 30
-3 19 -59 -13 -72 -10 -28 8 69 27 179 80 200 97 19 15 18 15 -17 13 -20 -1
-34 -5 -32 -8 2 -4 -3 -9 -11 -13 -8 -3 -14 -2 -14 2 3 18 -2 30 -14 35 -8 3
-24 -15 -41 -47z m211 -323 c-2 -16 -4 -5 -4 22 0 28 2 40 4 28 2 -13 2 -35 0
-50z"/>
<path d="M4188 1663 c7 -3 16 -2 19 1 4 3 -2 6 -13 5 -11 0 -14 -3 -6 -6z"/>
<path d="M4880 1472 c0 -10 48 -83 83 -126 l24 -29 -86 -44 c-75 -39 -87 -42
-97 -29 -12 18 -24 11 -24 -14 0 -23 -23 -41 -104 -84 -38 -20 -74 -40 -81
-46 -30 -25 -192 -97 -316 -141 -143 -50 -214 -62 -228 -41 -6 10 -12 6 -25
-12 -22 -35 -89 -67 -226 -109 -190 -59 -270 -77 -370 -84 -52 -3 -102 -9
-110 -14 -20 -11 154 -11 205 1 187 41 396 108 472 150 28 16 79 34 113 39 82
13 215 55 312 97 44 20 82 34 84 32 2 -3 -16 -20 -41 -38 -49 -37 -62 -61 -17
-33 35 23 39 26 87 68 69 60 71 48 13 -72 -54 -113 -53 -110 -40 -98 6 6 24
35 40 66 16 31 47 87 67 124 l38 68 114 54 c63 30 118 53 123 51 4 -2 -30 -48
-76 -103 -47 -55 -100 -125 -118 -156 -18 -30 -47 -75 -65 -99 -17 -24 -29
-46 -25 -49 3 -3 10 2 16 12 16 30 87 105 217 232 68 66 145 142 170 168 35
36 51 46 65 41 16 -6 18 -17 14 -111 -3 -96 -3 -101 10 -66 7 21 15 64 19 96
3 31 11 57 17 57 6 0 53 -43 104 -96 50 -54 92 -90 92 -81 0 9 -29 46 -64 84
-77 81 -66 94 36 42 34 -18 83 -40 108 -49 25 -10 76 -32 115 -50 91 -42 246
-102 251 -97 3 2 -44 29 -103 60 -198 101 -253 131 -249 135 5 4 224 -15 271
-25 17 -3 27 -2 23 2 -9 10 -65 19 -269 45 -187 24 -328 54 -377 79 -41 21
-100 80 -156 154 -20 27 -36 44 -36 39z"/>
<path d="M1880 1334 c1 -14 22 -48 50 -80 27 -31 161 -150 195 -173 11 -8 -7
10 -40 40 -80 72 -141 136 -176 183 -16 21 -29 35 -29 30z"/>
<path d="M2181 1048 c2 -2 19 -16 38 -33 l34 -30 -23 33 c-13 17 -30 32 -39
32 -8 0 -12 -1 -10 -2z"/>
<path d="M5074 1003 c-3 -16 -8 -35 -10 -43 -4 -10 -2 -12 4 -5 11 12 26 75
18 75 -3 0 -8 -12 -12 -27z"/>
<path d="M5350 1020 c0 -11 42 -51 47 -46 2 2 -7 15 -21 29 -14 15 -26 22 -26
17z"/>
<path d="M5415 950 c3 -5 8 -10 11 -10 2 0 4 5 4 10 0 6 -5 10 -11 10 -5 0 -7
-4 -4 -10z"/>
<path d="M5835 950 c3 -5 8 -10 11 -10 2 0 4 5 4 10 0 6 -5 10 -11 10 -5 0 -7
-4 -4 -10z"/>
<path d="M1206 908 c14 -85 26 -139 29 -136 7 7 -18 168 -26 168 -5 0 -6 -15
-3 -32z"/>
<path d="M5045 880 c-4 -17 -5 -34 -2 -36 2 -3 7 10 11 27 8 42 0 50 -9 9z"/>
<path d="M2453 860 c123 -77 301 -136 481 -157 126 -14 225 -10 181 7 -11 5
-51 9 -90 9 -152 2 -445 78 -562 146 -59 35 -67 31 -10 -5z"/>
<path d="M5958 883 c7 -3 16 -2 19 1 4 3 -2 6 -13 5 -11 0 -14 -3 -6 -6z"/>
<path d="M5022 804 c-7 -8 -8 -14 -3 -14 10 0 25 19 20 25 -2 1 -10 -3 -17
-11z"/>
<path d="M6196 785 c10 -8 26 -14 34 -14 11 0 10 3 -4 14 -11 8 -27 15 -35 15
-11 0 -10 -4 5 -15z"/>
<path d="M4568 756 c-32 -44 -69 -147 -63 -175 6 -29 14 -271 15 -458 l0 -123
189 0 190 0 -30 80 c-16 44 -29 88 -29 97 0 24 -69 154 -102 191 -16 19 -40
58 -53 88 -26 58 -41 73 -24 24 18 -50 5 -54 -19 -6 -29 57 -36 59 -17 5 18
-50 18 -56 4 -42 -9 9 -17 6 -32 -8 -14 -13 -23 -16 -28 -8 -4 6 -11 9 -17 5
-20 -12 -38 201 -19 225 20 25 53 39 95 39 l39 0 32 -94 c17 -52 31 -101 31
-110 0 -8 6 -13 13 -11 7 3 39 -51 84 -143 40 -81 99 -189 132 -239 l60 -93
187 0 c173 0 186 1 179 18 -22 54 -19 57 25 19 24 -20 48 -37 53 -37 5 0 -3
10 -19 22 -40 30 -134 128 -134 139 0 5 -25 68 -55 141 -31 72 -54 136 -52
142 2 5 23 -19 47 -54 24 -36 46 -67 49 -70 3 -3 33 -39 66 -80 88 -110 215
-240 235 -240 12 0 -9 28 -63 83 -80 80 -202 234 -248 311 l-23 39 35 -5 c28
-5 99 13 99 24 0 2 -26 3 -58 4 -65 0 -115 24 -136 64 -7 14 -17 34 -23 45 -7
11 -14 27 -16 36 -3 9 -43 29 -96 49 -103 37 -121 51 -97 75 14 15 22 35 13
35 -2 0 -17 -11 -33 -25 -32 -27 -40 -29 -99 -16 -49 11 -212 25 -205 17 3 -2
28 -8 55 -11 79 -11 66 -15 -44 -15 -101 0 -125 11 -58 26 19 4 26 9 17 12 -8
3 -19 11 -25 18 -8 10 -14 8 -27 -10z m297 -71 c28 -3 71 -13 97 -22 44 -16
46 -18 28 -30 -11 -8 -20 -20 -20 -27 0 -8 -7 -16 -15 -20 -8 -3 -15 -16 -15
-28 0 -13 -9 -29 -20 -36 -11 -7 -20 -22 -20 -35 0 -29 -15 -53 -24 -38 -12
19 -28 12 -21 -9 9 -28 -5 -25 -31 8 -25 30 -42 25 -24 -7 6 -12 8 -21 5 -21
-5 0 -109 215 -120 249 -9 28 37 32 180 16z"/>
<path d="M1210 696 c0 -8 5 -18 10 -21 6 -3 10 3 10 14 0 12 -4 21 -10 21 -5
0 -10 -6 -10 -14z"/>
<path d="M1218 630 c-3 -9 1 -80 9 -159 11 -106 12 -146 3 -155 -8 -8 -13 -7
-20 4 -8 12 -11 11 -16 -8 -4 -12 -10 -22 -14 -22 -19 0 -19 40 0 95 11 32 20
65 20 74 -1 27 -27 -15 -46 -73 -9 -28 -31 -87 -49 -131 -18 -44 -38 -111 -45
-150 -6 -38 -14 -78 -17 -87 -4 -17 8 -18 152 -18 146 0 157 1 150 18 -24 59
-76 294 -90 401 -28 213 -30 227 -37 211z m29 -352 c-3 -7 -5 -2 -5 12 0 14 2
19 5 13 2 -7 2 -19 0 -25z"/>
<path d="M5216 590 c24 -23 267 -80 424 -99 97 -13 378 -14 561 -4 l124 7
-105 12 c-146 18 -145 18 -129 -2 12 -15 -5 -16 -216 -11 -239 5 -388 24 -526
66 -105 32 -143 41 -133 31z"/>
<path d="M1180 531 c0 -5 5 -13 10 -16 6 -3 10 -2 10 4 0 5 -4 13 -10 16 -5 3
-10 2 -10 -4z"/>
<path d="M905 500 c-4 -6 -14 -9 -23 -8 -9 2 -16 -2 -15 -9 2 -7 -3 -10 -10
-7 -15 5 -94 -73 -278 -277 -16 -19 -39 -52 -51 -74 -11 -22 -34 -59 -50 -82
l-29 -43 218 0 218 0 100 161 c55 88 103 168 106 178 4 9 1 28 -7 41 -11 20
-13 21 -14 7 0 -10 -4 -16 -8 -13 -5 3 -24 -11 -43 -30 -32 -34 -69 -60 -69
-50 0 2 6 11 13 18 24 24 56 87 48 93 -5 2 -14 -2 -21 -10 -28 -33 -34 -14
-13 41 2 6 -7 14 -21 18 -19 5 -26 13 -26 31 0 25 -14 33 -25 15z"/>
<path d="M1145 469 c-4 -6 -5 -12 -2 -15 2 -3 7 2 10 11 7 17 1 20 -8 4z"/>
<path d="M4742 450 c0 -8 6 -31 13 -50 9 -23 14 -28 14 -15 0 11 -6 34 -14 50
-7 17 -13 23 -13 15z"/>
<path d="M1017 23 c-4 -3 -7 -11 -7 -17 0 -6 5 -5 12 2 6 6 9 14 7 17 -3 3 -9
2 -12 -2z"/>
</g>
</svg>
